<?xml version="1.0" encoding="UTF-8"?><svg id="Layer_1" xmlns="http://www.w3.org/2000/svg" viewBox="0 0 1201.85 283.91"><defs><style>.cls-1{fill:#675f59;}.cls-2{fill:#056939;}.cls-3{fill:#7b6f6e;}</style></defs><path class="cls-2" d="M1059.9,0c-78.39,0-141.95,63.55-141.95,141.95s63.56,141.95,141.95,141.95,141.95-63.55,141.95-141.95S1138.3,0,1059.9,0m.15,275.7c-73.87,0-133.75-59.88-133.75-133.74S986.19,8.21,1060.05,8.21s133.74,59.88,133.74,133.74-59.88,133.74-133.74,133.74"/><path class="cls-2" d="M1059.91,272.59c-72.04,0-130.64-58.61-130.64-130.63S987.87,11.32,1059.91,11.32s130.64,58.6,130.64,130.64-58.61,130.63-130.64,130.63m0-256.74c-69.54,0-126.11,56.57-126.11,126.11s56.57,126.1,126.11,126.1,126.1-56.57,126.1-126.1-56.57-126.11-126.1-126.11"/><path class="cls-2" d="M982.9,89.51c19.16-19.23,31.46-22.66,46.77-25.05-15.69,9.96-30.34,33.11-25.77,49.4,8.28-17.29,22.74-34.18,36.07-40.34-7.54,10.58-7.78,23.74-.52,34.99,1.68-14.59,11.9-28.61,20.44-38,8.54,9.39,18.76,23.41,20.45,38,7.26-11.25,7.01-24.41-.53-34.99,13.33,6.16,27.79,23.06,36.08,40.34,4.57-16.3-10.08-39.45-25.77-49.4,15.32,2.4,27.61,5.82,46.76,25.05-6.31-25.74-28.57-34.65-46.36-37.83,19.58-1.68,23.46,.31,40.75,7.47-18.77-18.45-31.93-21.78-50.73-19.98,3.22-2.81,6.3-4.33,11.05-5.58-7.89-3.1-20.23-1.47-25.03,3.12,0,0-.94-8.45-6.6-11.86v-.08s-.04,.03-.06,.04c-.02-.01-.04-.03-.06-.04v.08c-5.66,3.41-6.61,11.86-6.61,11.86-4.8-4.6-17.13-6.23-25.02-3.12,4.74,1.25,7.82,2.77,11.04,5.58-18.8-1.8-31.96,1.53-50.74,19.98,17.29-7.15,21.17-9.14,40.75-7.47-17.79,3.18-40.04,12.09-46.36,37.83"/><path class="cls-2" d="M1149.06,200.64s-42.09,2.78-89.17,21.68c-47.08-18.9-89.16-21.68-89.16-21.68,29.35,4.69,55.64,16.22,75.7,27.5-8.87,4.1-17.78,8.79-26.51,14.17,0,0,6.15,10.42,13.66,13.02,0,0,9.78-8.62,26.31-19.14,16.52,10.52,26.31,19.14,26.31,19.14,7.51-2.6,13.67-13.02,13.67-13.02-8.73-5.39-17.65-10.07-26.52-14.17,20.07-11.28,46.36-22.81,75.71-27.5"/><path class="cls-2" d="M1050.73,111.34c3.18-2.55,3.82-5.03,3.82-5.03,0,0,2.39,8.34-3.08,14.84,6.51-1.91,14.72-7.32,14.72-20.31s-6.56-16.81-6.56-16.81c0,0-.26,7.51-4.84,10.38-4.59,2.86-14.65,11.9-6.24,22.86,0,0-1.02-3.38,2.16-5.92"/><path class="cls-2" d="M1064.8,204.69c-19.23,0-34.82-15.23-34.82-34.01,0-7.56,2.53-14.55,6.8-20.19,2.51-3.32,6.35-5.92,10.79-6.07,5.65-.16,12.27-.06,18.62,.51,13.91,1.23,31.32-3.57,36.84-24.42-5.44,2.76-11.52,3.32-25.16,0-13.63-3.33-29.29,1.21-37.41,13.15,0,0,17.39-11.28,38.65-5.03-5.37,.06-22.08,.97-32.45,7.43-14.72,5.46-25.22,19.58-25.22,36.2,0,7.56,2.2,14.59,5.95,20.55l-8.64,6.12c-1.81,1.28-2.23,3.79-.95,5.6,1.28,1.81,3.79,2.24,5.6,.96l8.95-6.34c7.02,7.24,16.84,11.76,27.72,11.76,17.45,0,32.18-11.56,36.98-27.43-5.18,12.45-17.67,21.23-32.26,21.23"/><path class="cls-2" d="M1038.69,173.44h0v-.02s0-.01,0-.02h0v-.02h0s0-.01,0-.02h0v-.02h0s0-.01,0-.02h0v-.02h0v-.02h0s0-.01,0-.02h0v-.02h0s0-.01,0-.02h0v-.02h0v-.02h0s0-.01,0-.02h0v-.02h0v-.02s0,0,0,0h0v-.02h0v-.02s0,0,0,0h0v-.02h0v-.02h0s0-.02,0-.02h0v-.02h0v-.02h0s0-.02,0-.02h0v-.02h0v-.02s0,0,0,0h0v-.02h0v-.02h0s0-.01,0-.02h0v-.02h0v-.02h0v-.02c-.04-.62-.07-1.25-.07-1.88h-4.64c0,2.09,.22,4.18,.64,6.21l4.54-.95c-.02-.08-.03-.17-.05-.25,0,0,0-.01,0-.02,0,0,0-.01,0-.02v-.02s0-.01,0-.02h0s0-.01,0-.02h0s0-.01,0-.02h0v-.02h0v-.02h0v-.02h0s0-.01,0-.02h0s0-.01,0-.02h0s0-.02,0-.02h0s0-.02,0-.02h0v-.02s0,0,0-.01h0s0-.01,0-.02h0v-.02h0v-.02s0,0,0,0h0v-.02s0,0,0,0h0v-.02s0-.01,0-.02h0c-.02-.1-.03-.19-.05-.28v-.02s0-.01,0-.02c0,0,0-.01,0-.02h0s0-.01,0-.02v-.02s0-.01,0-.02c0,0,0-.01,0-.02v-.02h0s0-.02,0-.02c0,0,0-.01,0-.02v-.02s0-.01,0-.02c0,0,0-.01,0-.02h0v-.02h0v-.02s0-.01,0-.02h0c-.04-.28-.08-.55-.11-.82v-.02s0,0,0-.02v-.02h0v-.02h0s0-.02,0-.02v-.02s0-.01,0-.02v-.02h0s0-.02,0-.02v-.02s0-.01,0-.02c0-.12-.02-.24-.04-.35v-.02Z"/><path class="cls-2" d="M1090.55,173.93h0v.02s0,0,0,.02v.02h0s0,.01,0,.02h0v.02s0,.01,0,.02v.02h0s0,.01,0,.02,0,.01,0,.02v.02s0,.02,0,.04c-.07,.49-.14,.98-.23,1.46l4.56,.85c.14-.7,.24-1.4,.32-2.11,.15-1.36,.22-2.74,.2-4.1l-4.64,.08c0,.06,0,.12,0,.18-.02-2.26-.34-4.46-.9-6.55,.07,.24,.13,.48,.19,.72l4.51-1.09c-.49-2.02-1.18-4-2.08-5.88l-4.2,1.98c.12,.25,.23,.5,.33,.76-2.25-5.19-6.16-9.5-11.05-12.28-1.56,.29-3.12,.49-4.68,.6l-.27,.16c1.89,1.09,3.7,2.45,5.33,4.08,9.26,9.25,9.89,23.63,1.42,32.1-8.47,8.47-22.84,7.84-32.1-1.42-6.38-6.38-8.67-15.2-6.69-22.84-1.27,3.07-1.98,6.43-1.98,9.95,0,7.89,3.52,14.95,9.06,19.73-.09-.08-.19-.13-.28-.21l-3.08,3.48c1.56,1.38,3.26,2.61,5.06,3.64l2.32-4.02s-.1-.06-.14-.08h0s0,0-.01-.01h-.02s0-.01-.01-.01h0s0,0-.01,0h0s-.02-.01-.02-.01c0,0,0,0-.01,0h-.02c-.08-.06-.17-.11-.25-.16,0,0,0,0-.02,0,0,0,0,0-.01-.01-.12-.07-.23-.14-.34-.21,0,0,0,0-.01,0h-.01c-.08-.06-.15-.14-.23-.18,1.96,1.27,4.09,2.3,6.36,3.01l-1.38,4.43c1.82,.56,3.7,.97,5.61,1.19,.16,.02,.33,.04,.5,.05l.46-4.62c.86,.09,1.73,.13,2.6,.13,1.73,0,3.42-.17,5.05-.5-.02,0-.04,0-.06,.01,0,0-.01,0-.02,0,0,0,0,0-.02,0,0,0-.01,0-.02,0h-.02s0,0-.02,0c0,0-.01,0-.02,0h0s0,0-.01,0h0s0,0-.02,0h-.02s-.01,0-.01,0h0s0,0-.02,0h-.02s-.01,0-.02,0h0s0,0-.02,0c-.11,.02-.2,.04-.31,.06h-.02s0,0-.02,0c0,0-.01,0-.02,0,0,0-.01,0-.02,0h-.02s-.01,0-.02,0c0,0-.01,0-.02,0h-.02s-.01,0-.02,0c-.14,.02-.29,.04-.43,.07h-.02s-.02,0-.02,0c0,0-.01,0-.02,0h-.04c-.16,.03-.33,.05-.5,.07,0,0-.01,0-.02,0,0,0-.01,0-.02,0h-.02s-.01,0-.02,0l.55,4.61c2.07-.25,4.12-.71,6.1-1.37l-1.48-4.4s-.08,.02-.13,.04c1.96-.64,3.8-1.52,5.52-2.58-.08,.05-.14,.11-.22,.15l2.39,3.98c1.78-1.08,3.46-2.33,4.99-3.74l-3.15-3.41c-.07,.07-.16,.13-.23,.2,1.49-1.35,2.84-2.85,4-4.51,0,0,0,.01-.02,.02l3.81,2.66c1.19-1.71,2.21-3.55,3.03-5.46l-4.26-1.82c.97-2.24,1.61-4.66,1.91-7.18,0,0,0,0,0,.01h0Zm-31.35,22.41s0,0,0,0h0s0,0,0,0h0s0,0,0,0h0s0,0,0,0h-.02s0,0,0,0h0s0,0,0,0h-.01s0,0,0,0h-.02s0,0,0,0h0s0,0,0,0c0,0,0,0-.01,0h0s0,0,0,0h-.01s0,0,0,0h-.02s0,0,0,0h0s0,0,0,0h-.02s0,0,0,0h-.02s-.01,0-.01,0c0,0,0,0,0,0h0s0,0,0,0h-.02s0,0,0,0c0,0-.01,0-.02,0h0s-.01,0-.01,0c0,0,0,0,0,0h0s0,0,0,0h0s0,0,0,0h0s0,0,0,0h0s0,0,0,0h-.01s0,0,0,0h-.02s0,0,0,0h0s0,0,0,0h0s0,0,0,0h0s0,0,0,0h0s-.01,0-.02,0c0,0,0,0,0,0h0s0,0,0,0h0s0,0,0,0h-.02s0,0,0,0h0s0,0,0,0h0s0,0,0,0h0s0,0,0,0h-.02s-.01,0-.01,0h0s-.01,0-.01,0c0,0,0,0,0,0h0s0,0-.01,0c0,0,0,0,0,0h-.01s0,0,0,0h0s0,0,0,0h0s0,0,0,0h0s0,0,0,0h0s0,0,0,0h0s0,0,0,0h0s0,0,0,0h-.02s0,0,0,0h0s0,0,0,0h0s0,0,0,0h0s-.01,0-.02,0h0s0,0,0,0h0s0,0,0,0h0s0,0,0,0h0s0,0,0,0h0s0,0,0,0h0s0,0,0,0c0,0,0,0-.01,0h0s0,0-.01,0h0s0,0,0,0h0s0,0-.01,0h0s0,0-.01,0h0s-.02,0-.02,0h0s0,0,0,0h0s0,0,0,0h0s0,0,0,0h0s0,0,0,0h0s0,0,0,0h0s0,0,0,0c0,0,0,0,0,0h-.02s0,0,0,0h0s0,0,0,0h0s0,0,0,0h0s0,0,0,0t0,0s0,0-.02,0h0s0,0,0,0h0s0,0,0,0t0,0h0s0,0,0,0h0s0,0,0,0h0s0,0,0,0h0s0,0,0,0t0,0h0s0,0,0,0h0s0,0,0,0h-.03s0,0-.01-.01h0s0,0,0,0c0,0,0,0,0,0h-.02s0,0,0,0h0s0,0,0,0c0,0,0,0,0,0h0s0,0,0,0h0s0,0,0,0h0s0,0,0,0c0,0,0,0,0,0h0s0,0,0,0h0s0,0,0,0h0s0,0,0,0c0,0,0,0,0,0h-.03s0,0,0,0c0,0,0,0,0,0h0s-.01,0-.01,0c0,0,0,0,0,0,0,0,0,0-.01,0h0s0,0-.01,0h0s0,0-.01,0c.71,.22,1.43,.4,2.15,.56h0m2.58,.42h0s0,0,0,0h-.03s0,0,0,0h-.04s-.02,0-.02,0h0s-.01,0-.02,0h-.03s0,0,0,0h-.03s0,0,0,0h-.03s0,0-.01,0h-.03s0,0-.01,0h-.03s0,0,0,0h-.02s-.01,0-.02,0h0s-.01,0-.02,0h-.02s0,0-.01,0h-.03s0,0-.01,0h-.02s0,0,0,0h-.04s0,0,0,0h0s0,0,0,0h-.05s0,0,0,0h-.02s0,0-.01,0h-.03s0,0,0,0h-.02s0,0,0,0h-.03s0,0,0,0h-.02s0,0-.01,0h-.02s0,0,0,0c-.01,0-.02,0-.04,0h-.02s0,0,0,0h-.02s0,0-.01,0h-.02s0,0,0,0h-.02s0,0-.01,0h-.03s0,0,0,0h0s0,0-.01,0h-.02s-.01,0-.02,0h0s0,0-.01,0h-.02s0,0,0,0h-.01s0,0-.01,0h-.02s0,0,0,0h-.02s0,0,0,0h-.02s0,0,0,0h-.04s-.02,0-.04,0h0s0,0,0,0h-.03s-.01,0-.01,0h0s0,0,0,0h-.02s0,0,0,0h-.02s0,0-.01,0h0s0,0-.01,0h-.02s0,0,0,0h-.02s-.02,0-.03,0h0s0,0-.01,0h-.02s0,0,0,0h-.02s0,0,0,0h-.02s0,0,0,0h-.01s0,0,0,0h-.02s0,0,0,0h0s0,0-.01,0h0s-.01,0-.02,0h-.02s0,0-.02,0h0s0,0-.01,0h-.03s0,0,0,0h0s0,0,0,0h-.02s0,0,0,0h-.01s-.01,0-.01,0h0s0,0,0,0h0s0,0-.01,0h0s-.01,0-.02,0c0,0-.01,0-.02,0h-.02s0,0,0,0h-.01s0,0,0,0h-.03c.71,.14,1.44,.25,2.18,.33h-.02m9.92-.8h0s-.01,0-.02,0c0,0,0,0-.01,0h0s0,0-.01,0h0s0,0-.01,0h0s0,0-.02,0c0,0,0,0-.02,0,0,0,0,0-.02,0,0,0,0,0-.02,0,0,0-.01,0-.02,0-.08,.02-.16,.05-.25,.07t-.01,0h-.02s0,0-.02,0c0,0-.01,0-.02,0h0s0,0-.01,0h0s-.01,0-.01,0h0s-.01,0-.01,0h0s-.01,0-.01,0c0,0,0,0,0,0h-.01s0,0,0,0c0,0,0,0-.01,0h0s0,0,0,0h0s0,0,0,0h0s0,0-.01,0h0s0,0-.01,0h0s0,0-.01,0h0s0,0-.01,0h0s0,0-.01,0h0s0,0,0,0h0s0,0-.01,0h0s0,0-.01,0h0s-.04,0-.06,.01h0s0,0-.01,0h0s0,0-.01,0c0,0,0,0,0,0h0s0,0,0,0h-.02s0,0,0,0t0,0h0s0,0,0,0h-.02s0,0,0,0c0,0,0,0,0,0h-.02s0,0,0,0h0s0,0,0,0h0s0,0,0,0h-.01s0,0,0,0h0s0,0,0,0h0s0,0,0,0h0s0,0,0,0h-.02s-.01,0-.01,0h0s0,0,0,0c0,0,0,0,0,0h-.02s0,0-.01,0h0s0,0-.01,0h0s0,0,0,0h0s0,0-.01,0h0s-.01,0-.02,0c-.03,0-.06,0-.08,.02h0s0,0-.01,0h0s-.01,0-.02,0h-.02s0,0,0,0h-.02s-.01,0-.01,0h0c.63-.13,1.24-.29,1.85-.47-.1,.03-.2,.06-.3,.09m8.39-4.1c.13-.1,.27-.2,.41-.31-.14,.11-.28,.21-.41,.31m8.67-31.05h0s0,.01,0,.02c0,0,0,0,0,.02,0,0,0,0,0,.02,0,0,0,0,0,.01,0,0,0,.01,0,.02,0,0,0,.01,0,.02,.03,.08,.07,.17,.11,.26,0,0,0,0,0,.01h0s0,.01,0,.02c0,0,0,.01,0,.02,0,0,0,.01,0,.02,0,0,0,.01,0,.02,0,0,0,0,0,.01h0s0,.01,0,.02h0s0,.01,0,.02c0,0,0,.01,0,.02,0,0,0,.01,0,.02,.03,.07,.06,.14,.08,.22h0s0,0,0,.01c0,0,0,.01,0,.02h0s0,.01,0,.02c0,0,0,.01,0,.02h0s0,0,0,.02c0,0,0,0,0,.01h0s0,.01,0,.02h0s0,.01,0,.02h0s0,.01,0,.02c0,0,0,.01,0,.02l.07,.18s0,.01,0,.02c0,0,0,.01,0,.02,0,0,0,0,0,.01h0s0,.01,0,.02c0,0,0,0,0,0,0,0,0,0,0,.01h0s0,.01,0,.02h0s0,.01,0,.02h0s0,0,0,.02c0,0,0,0,0,.02h0s0,0,0,.02c0,0,0,0,0,.02,0,0,0,0,0,.02,.02,.05,.04,.11,.06,.16,0,0,0,.01,0,.02h0s0,.01,0,.02c0,0,0,0,0,.01h0s0,.01,0,.02c0,0,0,0,0,0,0,0,0,0,0,.01h0s0,.01,0,.02c0,0,0,0,0,0h0v.02s0,0,0,.01h0s0,.01,0,.02h0s0,.01,0,.02h0s0,.01,0,.02h0s0,.01,0,.02h0s0,.01,0,.02h0s0,0,0,.01h0s0,.01,0,.02t0,0s.02,.07,.03,.11h0s0,.01,0,.02h0s0,.01,0,.02h0s0,.01,0,.02h0s0,.01,0,.01t0,0h0s0,.01,0,.02c0,0,0,0,0,0h0s0,.02,0,.02h0s0,.01,0,.02c0,0,0,0,0,0t0,0h0s0,.01,0,.02t0,0h0s0,.01,0,.02c0,0,0,0,0,0h0s0,.02,0,.02h0s0,.02,0,.02c0,0,0,0,0,0h0s0,.01,0,.02,0,0,0,0h0s0,.01,0,.02c0,0,0,0,0,0h0s0,.02,0,.02c0,0,0,.01,0,.02h0s0,.01,0,.02h0s0,.01,0,.01h0s0,.02,0,.02c0,0,0,0,0,0h0s0,.02,0,.02h0s0,.02,0,.02c0,0,0,0,0,0h0s0,.02,0,.02h0s0,.02,0,.02c0,0,0,0,0,0h0s0,.02,0,.02h0s0,.02,0,.02c0,0,0,0,0,.01h0s0,.01,0,.02c0,0,0,0,0,0h0s0,.02,0,.02c0,0,0,0,0,.01h0s0,.01,0,.02h0s0,.01,0,.02h0s0,.02,0,.02h0s.02,.1,.04,.14h0s0,.01,0,.02h0s0,.01,0,.02h0s0,.01,0,.02t0,.02s0,.01,0,.02h0s0,.01,0,.02c0,0,0,.01,0,.02h0c-.3-1.04-.66-2.06-1.08-3.05,.02,.04,.04,.09,.06,.13m-1.39,22.9h0s0,0,0,.01h0s0,.01,0,.02h0s0,.01,0,.02t0,0s0,0,0,.01h0s0,0,0,.01h0s0,.01,0,.02t0,.01h0s0,.01,0,.02c0,0,0,0,0,0,0,0,0,0,0,.01,0,0,0,0,0,0s0,0,0,.01h0s0,0,0,.02c0,0,0,0,0,.01h0s0,.01,0,.02c0,0,0,.01-.01,.02-.01,.03-.03,.06-.05,.09h0s0,.01,0,.02h0s0,.01,0,.02c0,0,0,0,0,0,0,0,0,0,0,0t0,0s0,0,0,0c0,0,0,0,0,0h0v.02h0s0,.01,0,.02c0,0,0,0,0,0h0s0,.01,0,.01c0,0,0,0,0,0t0,0s0,0,0,0c0,0,0,0,0,0t0,0s0,0,0,0c0,0,0,0,0,0,0,0,0,0,0,0h0s0,.01,0,.01c0,0,0,0,0,0,0,0,0,0,0,0,0,0,0,0,0,0h0s0,.01,0,.01t0,0s0,0,0,0h0s0,.01,0,.01c0,0,0,0,0,0,0,0,0,0,0,0,0,0,0,0,0,0,0,0,0,0,0,.01-.02,.03-.04,.07-.06,.1,0,0,0,0,0,.01,0,0,0,0,0,.01h0s0,0,0,.01c0,0,0,0,0,0,0,0,0,0,0,.01,0,0,0,0,0,0,0,0,0,0,0,.01,0,0,0,0,0,.01h0s0,.01,0,.02h0s0,0,0,.01c0,0,0,0,0,0s0,0,0,.01c0,0,0,0,0,.01h0s0,.01,0,.02c0,0,0,0,0,.01,0,0,0,0,0,0,0,0,0,0,0,.01,0,0,0,0,0,.01-.06,.1-.13,.19-.19,.28,.3-.46,.59-.93,.86-1.41-.02,.04-.05,.08-.07,.12m3.32-11.36c0,.17,0,.33-.01,.5,0,.02,0,.04,0,.06,0,.01,0,.03,0,.04v.04s0,.03,0,.04,0,.02,0,.04h0s0,.03,0,.04h0v.02h0c.02-.26,.02-.53,.04-.8"/><path class="cls-2" d="M1083.39,152.69s0,0,0,0h0s0,0,0,.01h0s0,0,0,.01c0,0,0,0,0,0,0,0,0,0,0,0,0,0,0,0,0,0,0,0,0,0,0,0,0,0,0,0,0,0,0,0,0,0,0,0,0,0,0,0,0,0,0,0,0,0,0,0,0,0,0,0,0,0,0,0,0,0,0,0t0,0s0,0,0,0t0,0s0,0,0,0h0s0,0,0,.01h0s0,.01,0,.01h0s0,0,0,.01h0s0,.01,.01,.02t0,0h0s0,0,0,.01h0s0,0,0,.01c0,0,0,0,0,0t0,0s0,0,0,0c0,0,0,0,0,0t0,0s0,0,0,0h0s0,.01,0,.01c0,0,0,0,0,0,0,0,0,0,0,0h0s0,.01,0,.01h0s0,.01,0,.01t0,0s0,0,0,0t0,0s0,0,0,0t0,0s0,0,.01,0h0s.01,.01,.01,.01h0s.12,.13,.12,.13c0,0,0,0,0,.01h.01s0,.02,.01,.03c0,0,0,0,0,.01h.02c.46,.52,.9,1.04,1.32,1.58l3.67-2.84c-1.27-1.65-2.72-3.16-4.3-4.52l-3.02,3.52c.61,.53,1.2,1.08,1.76,1.66h0Z"/><path class="cls-2" d="M1043.53,186.14h0s0,0,0,0c0,0,0,0,0,0,0,0,0,0,0,0,0,0,0,0,0-.01h0s0,0,0-.01c0,0,0,0,0,0,0,0,0,0,0,0h0s0-.01,0-.02l-.05-.08s0,0,0-.01c0,0,0,0,0,0,0,0,0,0,0,0h0s0,0,0-.01h0s0-.01,0-.02c0,0,0,0,0,0,0,0,0,0,0,0h0s0-.01,0-.02h0s0,0,0-.01h0s0-.01,0-.01t0,0s0,0,0,0h0s0-.01,0-.02h0s0,0,0-.01h0s0-.01,0-.02c0,0,0,0,0-.01-.03-.04-.05-.08-.07-.11h0s0-.01,0-.02c0,0,0,0,0-.01h0s0,0,0-.01h0s0,0,0-.01h0s0-.01,0-.02c0,0,0,0,0,0,0,0,0,0,0,0h0s0-.01,0-.02h0s0,0,0-.01t0,0s0,0,0,0h0s0-.01,0-.02h-.01v-.02s-.04-.06-.06-.09h0s0-.01,0-.02c0,0,0,0,0-.01,0,0,0,0,0-.01h0s0,0,0-.01h0s0-.01,0-.02h0s0,0,0-.01c0,0,0,0,0,0,0,0,0,0,0-.01t0,0s0,0,0,0h0s0-.01,0-.01t0,0s0,0,0-.01t0,0s0,0,0,0h0s0-.01,0-.02c-.03-.04-.05-.08-.07-.11h0s0-.01,0-.02c0,0,0,0,0-.01h0s0,0,0-.01c0,0,0,0,0,0,0,0,0,0,0,0h0s0-.01,0-.02c0,0,0,0,0,0,0,0,0,0,0-.01,0,0,0,0,0,0,0,0,0,0,0,0,0,0,0,0,0,0,0,0,0,0,0-.01h0s0,0,0-.01c0,0,0,0,0,0,0,0,0,0,0,0h0s0-.01,0-.02h0s0-.01,0-.01h0s0-.01,0-.02c-.02-.03-.03-.05-.05-.08,0,0,0,0,0-.01h0s0-.01,0-.01h0s0-.01,0-.01h0s0-.01,0-.02c0,0,0,0,0,0,0,0,0,0,0-.01,0,0,0,0,0,0,0,0,0,0,0,0h0s0-.01,0-.02h0s0,0,0-.01t0,0s0,0,0,0t0,0s0,0,0-.01c0,0,0,0,0,0,0,0,0,0,0-.01h0s0,0,0-.01h0s0-.01,0-.02c-.02-.02-.03-.05-.05-.08,0,0,0,0,0-.01h0s0,0,0-.01h0s0-.01,0-.01t0,0s0,0,0-.01c0,0,0,0,0,0,0,0,0,0,0,0t0,0h0s0-.02,0-.03c0,0,0,0,0,0,0,0,0,0,0,0,0,0,0,0,0,0h0s0,0,0-.01c0,0,0,0,0,0h0s0-.01,0-.02h0s0-.01,0-.01h0s0-.01,0-.02h0s-.03-.06-.05-.08h0s0,0,0-.01,0,0,0,0c0,0,0,0,0-.01h0s0,0,0-.01h0s0-.01,0-.01h0s0-.01,0-.02t0,0s0,0,0-.01h0s0-.01,0-.01c0,0,0,0,0,0,0,0,0,0,0,0h0s0,0,0-.01h0s0-.01,0-.02h0s0-.01,0-.02h0s0,0,0-.01h0s0-.01,0-.02h0s0-.01,0-.02c-.02-.02-.03-.05-.05-.08,0,0,0,0,0-.01,0,0,0,0,0,0,0,0,0,0,0,0,0,0,0,0,0,0h0s0-.01,0-.02t0,0h0s0-.01,0-.02h0s0-.01,0-.02h0s0,0,0-.01h0s0-.01,0-.01t0,0s0,0,0,0t0,0s0,0,0-.01c0,0,0,0,0,0,0,0,0,0,0-.01,0,0,0,0,0,0,0,0,0,0,0,0h0s0-.01,0-.02c-.02-.03-.04-.07-.06-.1h0s0,0,0-.01c0,0,0,0,0,0,0,0,0,0,0-.01h0s0,0,0-.01h0s0-.01,0-.02t0,0h0s0-.01,0-.02c0,0,0,0,0,0t0,0s0,0,0,0h0s0-.01,0-.02h0s0-.01,0-.02h0s0-.01,0-.02c0,0,0,0,0-.01h0c-.03-.05-.06-.11-.09-.15,0,0,0-.01,0-.02h0s0,0,0-.01h0s0-.01,0-.02h0s0,0,0-.01h0s0-.01,0-.02h0s0-.01,0-.02,0,0,0-.01h0c-.27-.49-.51-.99-.74-1.51l-4.23,1.91c.85,1.9,1.91,3.71,3.13,5.4l3.76-2.73Z"/><path class="cls-2" d="M855.28,215.03H433.89c-239.63,0-433.89,1.96-433.89,4.37s194.26,4.37,433.89,4.37h421.4v-8.75Z"/><path class="cls-3" d="M403.68,244.28c1.35,0,2.4-1.06,2.4-2.4s-1.06-2.4-2.4-2.4-2.4,1.01-2.4,2.4,1.01,2.4,2.4,2.4"/><path class="cls-3" d="M410.25,244.28c1.37,0,2.4-1.03,2.4-2.4s-1.03-2.4-2.4-2.4-2.4,1.03-2.4,2.4,1.04,2.4,2.4,2.4"/><path class="cls-3" d="M429.51,272.6c-1.37,0-2.4,1.01-2.4,2.36s1.03,2.4,2.4,2.4,2.4-1.03,2.4-2.4-1.04-2.36-2.4-2.36"/><path class="cls-3" d="M422.94,272.6c-1.4,0-2.41,.99-2.41,2.36s1.01,2.4,2.41,2.4,2.4-1.05,2.4-2.4-1.06-2.36-2.4-2.36"/><path class="cls-3" d="M426.55,249.25l.28,.09c2,.64,2,.95,2,1.98v11.08c0,2.82-1.12,4.27-3.35,4.31h-7.94c-1.9-.16-2.3-2.03-2.3-3.58v-11.82c0-.91,.04-2.1,.32-3.32l.02-.09h-2.41l-.02,.02c-.24,.24-.27,.41-.29,.55,0,.06-.02,.11-.04,.17-.27,.78-.39,1.01-.43,1.07-.1-.06-.35-.23-.73-.47h-.02c-1.04-.7-2.8-1.84-5.41-1.84-5.9,0-9.43,5.33-9.43,10.49,0,5.88,3.8,10.66,8.47,10.66,3.5,0,5.67-2.31,6.55-4.43,.17,4.01,2.91,4.39,5.73,4.43h8.72c4.13,0,6.69-2.3,6.69-6.01v-14.52l-6.11,1.16-.29,.06Zm-15.83,13.55c-.72,2.43-2.68,4.06-4.86,4.06-1.76,0-4.76-1.83-4.76-8.68s2.76-9.01,5.12-9.01c2.03,0,3.4,.85,4.18,2.61,.71,1.63,.81,3.81,.81,5.53,0,2.38-.09,4.12-.5,5.5"/><path class="cls-3" d="M447.81,248.09h-.09c-1.5,0-2.88,.74-4.21,2.26-2.01,2.29-2.81,2.49-3.87,2.53h-.1s.89,3.82,.89,3.82l.1-.14c2.47-3.56,4.99-6.86,6.65-6.86,2.38,0,2.84,4.21,2.84,11.47v5.54h-13.37l1.52,1.82,.02,.03h16.45v-1.26c0-5.74-.67-19.1-6.83-19.2"/><path class="cls-3" d="M551.61,240.44l.28,.09c1.96,.62,1.96,.9,1.96,1.94v19.94c0,2.86-1.18,4.31-3.53,4.31h-1.08v.04h-.52c-2.52,0-4.4-2.67-4.94-5.31v-13.38l-6.32,1.22,.28,.09c1.9,.62,1.9,.9,1.9,1.94v11.27c0,2.86-1.18,4.31-3.52,4.31-3.01,0-4.85-4.16-4.85-7.14v-10.04l-6.45,1.21,.28,.09c2,.69,2,.84,2,1.75v9.81c0,2.86-1.2,4.31-3.57,4.31-2.63,0-4.42-3.21-4.76-6.22v-9.31l-6.12,1.12-.29,.05,.28,.09c2,.67,2,.82,2,1.8v7.99c0,2.86-1.17,4.31-3.49,4.31h-12c-1.39,0-2.01-.25-2.56-.69,1.9-1.03,4.05-2.29,5.67-3.81,1.89-1.77,2.8-3.62,2.8-5.65,0-4.95-3.83-8.15-9.75-8.15-2.99,0-6.59,1.19-10.4,3.44-.21,.12-.35,.22-.45,.31-.05,.04-.1,.07-.14,.1l-.08,.05,.06,.06c.11,.11,.45,.58,.76,1l.36,.5c.77,1,2.22,2.89,2.93,4.23,2.41,4.87,3.27,6.23,4.56,7.7-1.18,.67-3.82,.9-4.31,.9h-12.46c.21-1.85,.31-4.21,.31-7.23v-11.25h-3.55c-3.87,0-7.19,1.23-9.63,3.57-2.47,2.38-3.78,5.68-3.78,9.56,0,4.63,4.18,7.19,7.06,7.19h5.15c-1.64,5.49-5.52,7.04-9.09,7.84l-1.69,.28,.61,.05c1.72,.14,3.12,.23,3.74,.23,2.38,0,4.32-.48,5.89-1.47,2.14-1.35,3.67-3.67,4.53-6.93h14c2.44,0,3.61-.5,4.85-1.16,.01,0,.03,.02,.05,.02,.65,.43,1.75,1.14,5.18,1.14h12.28c2.93,0,5.12-1.07,6.18-3.03,1.65,2.19,3.49,3.08,6.33,3.08s5.61-1.66,6.31-3.74c1.08,2.28,3.5,3.74,6.19,3.74,3.13,0,5.49-1.42,6.36-3.8,1.11,2.21,3.61,3.8,6.02,3.8h.62v-.05h1.21c4.16,0,6.74-2.3,6.74-6.01v-23.33l-6.12,1.16-.29,.05Zm-79.32,24.94c0,.54-.04,.88-.07,1.29v.05h-4.64c-2.46,0-3.93-2.86-3.93-5.62,0-6.75,4.25-11.29,8.22-11.29h.43v15.58Zm19.36-6.88c-1.08-2.37-2.22-4.25-3.6-5.92,2.48-1.37,5.01-2.09,7.32-2.09,3.15,0,5.03,2.21,5.03,5.9,0,4.33-2.19,6.04-5.29,7.98-1.21-1.38-2.62-4.19-3.46-5.87"/><path class="cls-3" d="M561.75,240.44l.28,.1c1.91,.63,1.91,.93,1.91,1.93v26.09h4.17v-29.33l-6.07,1.16-.29,.05Z"/><path class="cls-3" d="M587.29,244.28c1.35,0,2.4-1.06,2.4-2.4s-1.06-2.4-2.4-2.4-2.4,1.01-2.4,2.4,1.01,2.4,2.4,2.4"/><path class="cls-3" d="M593.86,244.28c1.37,0,2.4-1.03,2.4-2.4s-1.03-2.4-2.4-2.4-2.4,1.03-2.4,2.4,1.03,2.4,2.4,2.4"/><path class="cls-3" d="M606.6,272.6c-1.39,0-2.4,.99-2.4,2.36s1.01,2.4,2.4,2.4,2.4-1.05,2.4-2.4-1.06-2.36-2.4-2.36"/><path class="cls-3" d="M613.17,272.6c-1.37,0-2.41,1.01-2.41,2.36s1.04,2.4,2.41,2.4,2.4-1.03,2.4-2.4-1.03-2.36-2.4-2.36"/><path class="cls-3" d="M631.69,248.03l-6.12,1.16-.29,.06,.28,.09c2,.64,2,.95,2,1.98v11.08c0,2.82-1.13,4.27-3.35,4.31h-4.11c-3.12,0-5.03-4.05-5.03-6.95v-11.74l-6.12,1.16-.28,.05,.27,.09c1.83,.65,1.96,.82,1.96,1.76v11.46c0,2.8-1.1,4.17-3.35,4.17h-6.39c-1.9-.16-2.3-2.03-2.3-3.58v-11.82c0-.9,.04-2.1,.32-3.32l.02-.09h-2.41l-.02,.02c-.24,.24-.27,.41-.29,.55,0,.06-.02,.11-.04,.16-.24,.7-.38,.99-.44,1.07-.1-.06-.35-.23-.73-.47l-.03-.02c-1.04-.68-2.8-1.82-5.4-1.82-5.9,0-9.43,5.33-9.43,10.49,0,5.88,3.8,10.66,8.48,10.66,3.5,0,5.67-2.31,6.55-4.43,.16,4,2.91,4.39,5.73,4.43h7.21c2.42,0,5.54-.61,6.77-3.48,1.52,2.24,3.54,3.48,5.69,3.48h4.16c4.12,0,6.69-2.3,6.69-6.01v-14.52Zm-37.35,14.77c-.73,2.42-2.68,4.06-4.86,4.06-1.77,0-4.76-1.83-4.76-8.68s2.76-9.01,5.12-9.01c2.03,0,3.39,.85,4.18,2.61,.71,1.63,.81,3.81,.81,5.53,0,2.37-.09,4.11-.5,5.5"/><path class="cls-3" d="M626.18,272.51c-1.38,0-2.45,1.08-2.45,2.45s1.1,2.4,2.45,2.4,2.45-1.08,2.45-2.4-1.08-2.45-2.45-2.45"/><path class="cls-3" d="M682.46,240.44l.28,.09c1.96,.62,1.96,.9,1.96,1.94v19.94c0,2.86-1.18,4.31-3.53,4.31h-11.95c-1.39,0-2.01-.25-2.56-.69,4.41-2.39,8.48-5.2,8.48-9.46,0-4.95-3.83-8.15-9.75-8.15-2.99,0-6.59,1.19-10.4,3.43-.22,.13-.36,.23-.46,.32-.05,.03-.1,.07-.14,.1l-.07,.05,.06,.06c.12,.12,.48,.61,.8,1.06l.37,.49c.82,1.07,2.18,2.86,2.88,4.18,2.4,4.86,3.27,6.23,4.56,7.7-1.18,.67-3.81,.9-4.31,.9h-13.19c.43-2.51,.49-5.18,.49-7.23v-11.46l-6.46,1.21,.29,.1c2,.63,2,.95,2,1.98v11.59c-.28,6.73-2.1,11.34-10.21,13.53l-.42,.11,.44,.04c1.49,.12,2.6,.18,3.29,.18,5.58,0,8.92-2.68,10.24-8.22h14.64c2.44,0,3.61-.5,4.86-1.16,.01,0,.03,.02,.04,.02,.65,.43,1.74,1.14,5.18,1.14h12.28c4.16,0,6.74-2.3,6.74-6.01v-23.33l-6.12,1.16-.29,.05Zm-20.75,18.06c-1.07-2.37-2.22-4.25-3.6-5.92,2.48-1.37,5.01-2.09,7.32-2.09,3.15,0,5.03,2.21,5.03,5.9,0,4.33-2.19,6.05-5.29,7.98-1.12-1.28-2.37-3.7-3.46-5.87"/><path class="cls-3" d="M692.6,240.44l.28,.1c1.91,.63,1.91,.93,1.91,1.93v26.09h4.17v-29.33l-6.07,1.16-.29,.05Z"/><path class="cls-3" d="M718.14,244.28c1.35,0,2.4-1.06,2.4-2.4s-1.06-2.4-2.4-2.4-2.4,1.01-2.4,2.4,1.01,2.4,2.4,2.4"/><path class="cls-3" d="M724.72,244.28c1.37,0,2.4-1.03,2.4-2.4s-1.03-2.4-2.4-2.4-2.4,1.03-2.4,2.4,1.03,2.4,2.4,2.4"/><path class="cls-3" d="M839.03,240.48c2.04,.64,2.04,.94,2.04,1.94v19.99c0,1.22-.22,2.58-1.06,3.44-.03,.03-.07,.05-.1,.09-.32,.29-.71,.52-1.2,.65-.05,.02-.11,.02-.16,.04-.26,.05-.53,.09-.84,.09h-3.51c-2.13,0-3.64-2.06-4.35-3.99,.09-.49,.13-1.04,.13-1.64,0-2.24-.82-4.67-2.19-6.5-1.14-1.53-3.17-3.34-6.38-3.34-6.83,0-7.94,4.32-9.02,8.5-.58,2.22-1.3,4.98-2.66,6.31-.49,.41-1.18,.55-1.59,.64l-.1,.02h-2.97c-2.14,0-3.64-2.06-4.35-3.99,.09-.49,.14-1.04,.14-1.64,0-2.24-.82-4.67-2.19-6.5-1.13-1.53-3.17-3.34-6.37-3.34-6.83,0-7.94,4.32-9.02,8.5-.58,2.22-1.29,4.98-2.66,6.31-.49,.41-1.18,.56-1.59,.64l-.1,.02h-2.78c-3.1,0-5.08-4.12-5.08-6.95v-20.63l-6.07,1.16-.28,.05,.27,.09c1.84,.65,1.96,.82,1.96,1.76v20.35c0,2.77-1.13,4.17-3.35,4.17h-9.65v-7.78c0-4.43-4.12-8.55-9.26-9.34,4.45-1.39,10.77-4.77,11-7.17v-.03l-3.08-4.18-.12-.16v.2c-.37,4.74-9.04,10.93-12.04,10.93h-1.13l-1.15,1.75h4.34c2.29,0,4.16,.97,5.43,2.81,.98,1.43,1.57,3.43,1.57,5.33v7.64h-17.49c-1.9-.16-2.3-2.03-2.3-3.58v-11.82c0-.9,.04-2.1,.31-3.32l.02-.09h-2.41l-.02,.02c-.24,.24-.27,.41-.29,.55,0,.06-.02,.11-.04,.16-.24,.7-.38,.99-.44,1.07-.1-.06-.34-.23-.72-.47h-.03c-1.05-.7-2.8-1.84-5.4-1.84-5.9,0-9.44,5.33-9.44,10.49,0,5.88,3.81,10.66,8.48,10.66,3.5,0,5.67-2.31,6.55-4.43,.16,4.01,2.91,4.39,5.73,4.43h32.41c2.05,0,3.64-.47,4.86-1.28,.04-.02,.08-.06,.11-.08,.51-.36,.93-.78,1.26-1.28,.02-.04,.05-.07,.07-.11,.16-.25,.36-.45,.48-.72,1.52,2.24,3.55,3.48,5.74,3.48h1.96c2.11,0,3.55-.56,4.79-1.88,1.48,1.87,3.41,3.84,7.44,3.84,.49,0,.92-.11,1.38-.16,.12-.01,.23-.03,.35-.04,.79-.12,1.53-.32,2.23-.6,.15-.06,.32-.12,.47-.19,.63-.29,1.2-.66,1.74-1.08,.12-.1,.24-.18,.35-.28,.49-.42,.91-.91,1.29-1.45,.1-.14,.2-.28,.28-.42,.16-.26,.37-.46,.51-.73,1.68,2.12,3.5,2.99,6.28,2.99h2.01c2.12,0,3.55-.56,4.79-1.87,1.49,1.87,3.43,3.84,7.44,3.84,.48,0,.92-.11,1.38-.16,.11-.01,.23-.02,.34-.04,.8-.12,1.54-.32,2.25-.6,.14-.06,.3-.11,.44-.18,.65-.3,1.23-.67,1.77-1.1,.11-.09,.22-.16,.32-.26,.5-.43,.93-.93,1.31-1.48,.09-.13,.18-.25,.26-.38,.16-.26,.38-.46,.51-.74,1.68,2.12,3.5,2.99,6.29,2.99h3.33c4.16,0,6.74-2.3,6.74-6.01v-23.37l-6.46,1.21,.29,.09Zm-113.84,22.31c-.73,2.43-2.68,4.06-4.86,4.06-1.77,0-4.76-1.83-4.76-8.69s2.76-9.01,5.13-9.01c2.03,0,3.39,.85,4.18,2.61,.71,1.62,.81,3.81,.81,5.53,0,2.37-.09,4.11-.5,5.5m66.07,5.97c-2.95,0-5.09-2.64-6-3.75,0-.02-.09-.17-.2-.27,.79-1.5,1.19-3.02,1.57-4.48l.09-.36,.1-.28c.85-3.34,1.73-6.79,4.67-6.79h.18c3.35,.14,4.85,4.34,4.85,8.46s-2.41,7.45-5.26,7.45m29.12,0c-2.95,0-5.09-2.62-6.01-3.75-.04-.07-.11-.19-.19-.26,.79-1.52,1.19-3.05,1.58-4.53l.08-.3,.09-.28c.85-3.34,1.73-6.79,4.68-6.79h.18c3.35,.14,4.85,4.34,4.85,8.46s-2.41,7.45-5.26,7.45"/><path class="cls-3" d="M849.21,240.38l-.29,.05,.28,.1c1.92,.64,1.92,.94,1.92,1.93v26.09h4.17v-29.33l-6.07,1.16Z"/><polygon class="cls-1" points="16.33 196.51 4.45 172.85 4.37 172.85 4.37 196.51 .54 196.51 .54 167.46 5.68 167.46 17.21 190.45 17.3 190.45 17.3 167.46 21.12 167.46 21.12 196.51 16.33 196.51"/><path class="cls-1" d="M38.56,196.51v-2.78h-.09c-1.18,2.02-3.28,3.24-5.64,3.24-2.86,0-5.47-1.98-5.47-5.01,0-5.64,6.95-6.4,11.2-6.61v-1.76c0-2.02,.04-5.81-2.82-5.81-2.69,0-3.11,2.19-3.24,4.38h-4.47c.34-4.67,3.24-6.15,7.7-6.15,5.56,0,7.07,2.44,7.07,7.58v12.92h-4.25Zm0-9.39c-2.61,.17-6.57,.84-6.57,4.21,0,1.47,.8,2.99,2.44,2.99,.55,0,1.14-.17,1.6-.42,1.68-.88,2.52-2.57,2.52-4.42v-2.36Z"/><path class="cls-1" d="M55.53,178.66v11.54c0,2.44,.04,4.37,3.03,4.37,.68,0,1.35-.08,1.98-.33v2.44c-.97,.26-1.98,.29-2.94,.29-3.66,0-6.32-.97-6.32-5.09v-13.22h-3.2v-2.19h3.2v-4.71l4.25-2.57v7.28h5.47v2.19h-5.47Z"/><path class="cls-1" d="M65.89,167.46h4.59v4.21h-4.59v-4.21Zm.16,9.01h4.25v20.04h-4.25v-20.04Z"/><path class="cls-1" d="M85.26,196.97c-6.53,0-8.84-4.55-8.84-10.49s2.31-10.48,8.84-10.48,8.88,4.5,8.88,10.48-2.36,10.49-8.88,10.49m0-19.2c-4,0-4.21,5.85-4.21,8.71s.21,8.71,4.21,8.71,4.25-5.85,4.25-8.71-.21-8.71-4.25-8.71"/><path class="cls-1" d="M112.16,196.51v-12.55c0-1.77-.09-4.8-2.52-4.8-3.96,0-5.39,5.94-5.39,9.05v8.29h-4.25v-20.04h4.25v4.76h.09c1.35-2.94,3.58-5.22,7.03-5.22s5.05,2.74,5.05,5.85v14.65h-4.25Z"/><path class="cls-1" d="M133.6,196.51v-2.78h-.09c-1.18,2.02-3.28,3.24-5.64,3.24-2.86,0-5.47-1.98-5.47-5.01,0-5.64,6.95-6.4,11.2-6.61v-1.76c0-2.02,.04-5.81-2.82-5.81-2.69,0-3.11,2.19-3.24,4.38h-4.47c.34-4.67,3.24-6.15,7.7-6.15,5.56,0,7.07,2.44,7.07,7.58v12.92h-4.25Zm0-9.39c-2.61,.17-6.57,.84-6.57,4.21,0,1.47,.8,2.99,2.44,2.99,.55,0,1.13-.17,1.6-.42,1.68-.88,2.52-2.57,2.52-4.42v-2.36Z"/><rect class="cls-1" x="145.26" y="167.46" width="4.25" height="29.05"/><path class="cls-1" d="M184.38,175.33c0-2.99-1.26-5.81-4.67-5.81-5.34,0-6.15,7.16-6.15,11.16,0,5.39,1.05,13.26,8.04,13.26,2.82,0,4.84-1.09,6.99-2.78v3.96c-2.31,1.39-5.09,1.85-7.74,1.85-9.1,0-12.21-7.57-12.21-15.53,0-7.5,2.86-14.44,11.45-14.44,5.31,0,9.68,2.61,9.68,8.34h-5.39Z"/><path class="cls-1" d="M197.06,184.21c0,4.76,2.23,10.52,7.79,10.52,1.3,0,2.61-.29,3.83-.84v1.94c-2.02,.84-3.66,1.14-5.85,1.14-6.95,0-10.02-4.84-10.02-11.37,0-5.73,2.4-9.6,8.54-9.6,5.43,0,7.7,3.08,7.7,8.21h-12Zm4.12-6.44c-2.56,0-3.83,2.19-4,4.5h7.7c0-2.36-1.05-4.5-3.71-4.5"/><path class="cls-1" d="M226.99,196.51v-12.55c0-1.77-.09-4.8-2.52-4.8-3.96,0-5.39,5.94-5.39,9.05v8.29h-4.25v-20.04h4.25v4.76h.09c1.35-2.94,3.58-5.22,7.03-5.22s5.05,2.74,5.05,5.85v14.65h-4.25Z"/><path class="cls-1" d="M244.05,178.66v11.54c0,2.44,.04,4.37,3.03,4.37,.68,0,1.35-.08,1.97-.33v2.44c-.97,.26-1.97,.29-2.94,.29-3.66,0-6.31-.97-6.31-5.09v-13.22h-3.2v-2.19h3.2v-4.71l4.25-2.57v7.28h5.47v2.19h-5.47Z"/><path class="cls-1" d="M257.15,184.21c0,4.76,2.23,10.52,7.79,10.52,1.3,0,2.61-.29,3.83-.84v1.94c-2.02,.84-3.66,1.14-5.85,1.14-6.95,0-10.02-4.84-10.02-11.37,0-5.73,2.4-9.6,8.54-9.6,5.43,0,7.7,3.08,7.7,8.21h-12Zm4.12-6.44c-2.57,0-3.83,2.19-4,4.5h7.7c0-2.36-1.06-4.5-3.71-4.5"/><path class="cls-1" d="M279.17,187.33v9.18h-4.25v-20.04h4.25v5.09h.09c1.43-2.9,2.94-5.26,6.48-5.56v4.42c-4.71,.13-6.57,2.15-6.57,6.9"/><path class="cls-1" d="M313.15,169.44c-4.38,0-3.88,3.88-3.88,7.03h5.69v2.19h-5.69v17.85h-4.25v-17.85h-3.49v-2.19h3.49v-1.9c0-5.26,2.23-7.57,7.63-7.57,1.42,0,2.86,.16,4.24,.46v2.91c-1.3-.55-2.31-.93-3.74-.93"/><path class="cls-1" d="M326.96,196.97c-6.53,0-8.84-4.55-8.84-10.49s2.31-10.48,8.84-10.48,8.89,4.5,8.89,10.48-2.36,10.49-8.89,10.49m0-19.2c-4,0-4.21,5.85-4.21,8.71s.21,8.71,4.21,8.71,4.25-5.85,4.25-8.71-.21-8.71-4.25-8.71"/><path class="cls-1" d="M345.95,187.33v9.18h-4.25v-20.04h4.25v5.09h.09c1.42-2.9,2.94-5.26,6.48-5.56v4.42c-4.71,.13-6.57,2.15-6.57,6.9"/><polygon class="cls-1" points="370.54 196.51 370.54 167.46 385.87 167.46 385.87 170.24 375.17 170.24 375.17 180.01 385.28 180.01 385.28 182.78 375.17 182.78 375.17 193.48 386.2 193.48 386.2 196.51 370.54 196.51"/><path class="cls-1" d="M403.85,196.51v-12.55c0-1.77-.09-4.8-2.52-4.8-3.96,0-5.39,5.94-5.39,9.05v8.29h-4.25v-20.04h4.25v4.76h.09c1.34-2.94,3.58-5.22,7.03-5.22s5.05,2.74,5.05,5.85v14.65h-4.25Z"/><polygon class="cls-1" points="423.77 196.51 420.06 196.51 412.44 176.47 416.95 176.47 422.12 190.78 422.21 190.78 426.92 176.47 430.84 176.47 423.77 196.51"/><path class="cls-1" d="M435.22,167.46h4.59v4.21h-4.59v-4.21Zm.17,9.01h3.81v20.04h-3.81v-20.04Z"/><path class="cls-1" d="M451.43,187.33v9.18h-4.25v-20.04h4.25v5.09h.09c1.42-2.9,2.94-5.26,6.48-5.56v4.42c-4.71,.13-6.57,2.15-6.57,6.9"/><path class="cls-1" d="M469.66,196.97c-6.53,0-8.84-4.55-8.84-10.49s2.31-10.48,8.84-10.48,8.88,4.5,8.88,10.48-2.36,10.49-8.88,10.49m0-19.2c-4,0-4.21,5.85-4.21,8.71s.21,8.71,4.21,8.71,4.25-5.85,4.25-8.71-.21-8.71-4.25-8.71"/><path class="cls-1" d="M496.57,196.51v-12.55c0-1.77-.09-4.8-2.52-4.8-3.96,0-5.39,5.94-5.39,9.05v8.29h-4.25v-20.04h4.25v4.76h.09c1.35-2.94,3.58-5.22,7.03-5.22s5.05,2.74,5.05,5.85v14.65h-4.25Z"/><path class="cls-1" d="M530.42,196.51v-12.92c0-1.73-.09-4.42-2.44-4.42-3.66,0-4.46,6.31-4.46,9.01v8.34h-4.25v-12.55c0-1.85,.04-4.8-2.52-4.8-3.75,0-4.38,6.31-4.38,9.05v8.29h-4.25v-20.04h4.25v4.76h.08c.84-2.73,3.03-5.22,6.06-5.22s4.8,2.14,4.97,4.97h.08c1.22-2.69,2.74-4.97,6.06-4.97,4.21,0,5.05,3.41,5.05,6.9v13.6h-4.25Z"/><path class="cls-1" d="M544.75,184.21c0,4.76,2.23,10.52,7.79,10.52,1.3,0,2.61-.29,3.83-.84v1.94c-2.02,.84-3.66,1.14-5.85,1.14-6.95,0-10.02-4.84-10.02-11.37,0-5.73,2.4-9.6,8.54-9.6,5.43,0,7.7,3.08,7.7,8.21h-12Zm4.12-6.44c-2.57,0-3.83,2.19-4,4.5h7.71c0-2.36-1.06-4.5-3.71-4.5"/><path class="cls-1" d="M574.68,196.51v-12.55c0-1.77-.09-4.8-2.52-4.8-3.96,0-5.39,5.94-5.39,9.05v8.29h-4.25v-20.04h4.25v4.76h.09c1.35-2.94,3.58-5.22,7.03-5.22s5.05,2.74,5.05,5.85v14.65h-4.25Z"/><path class="cls-1" d="M591.73,178.66v11.54c0,2.44,.04,4.37,3.03,4.37,.68,0,1.35-.08,1.98-.33v2.44c-.97,.26-1.98,.29-2.94,.29-3.66,0-6.32-.97-6.32-5.09v-13.22h-3.2v-2.19h3.2v-4.71l4.25-2.57v7.28h5.47v2.19h-5.47Z"/><path class="cls-1" d="M611.95,196.51v-2.78h-.09c-1.18,2.02-3.28,3.24-5.64,3.24-2.86,0-5.47-1.98-5.47-5.01,0-5.64,6.95-6.4,11.2-6.61v-1.76c0-2.02,.04-5.81-2.82-5.81-2.69,0-3.11,2.19-3.24,4.38h-4.47c.34-4.67,3.24-6.15,7.7-6.15,5.56,0,7.07,2.44,7.07,7.58v12.92h-4.25Zm0-9.39c-2.61,.17-6.57,.84-6.57,4.21,0,1.47,.8,2.99,2.44,2.99,.55,0,1.14-.17,1.6-.42,1.68-.88,2.52-2.57,2.52-4.42v-2.36Z"/><rect class="cls-1" x="623.61" y="167.46" width="4.25" height="29.05"/><path class="cls-1" d="M662.73,175.33c0-2.99-1.26-5.81-4.67-5.81-5.34,0-6.15,7.16-6.15,11.16,0,5.39,1.05,13.26,8.04,13.26,2.82,0,4.84-1.09,6.99-2.78v3.96c-2.31,1.39-5.1,1.85-7.74,1.85-9.09,0-12.21-7.57-12.21-15.53,0-7.5,2.86-14.44,11.45-14.44,5.31,0,9.68,2.61,9.68,8.34h-5.39Z"/><path class="cls-1" d="M680.03,196.97c-6.53,0-8.84-4.55-8.84-10.49s2.31-10.48,8.84-10.48,8.89,4.5,8.89,10.48-2.36,10.49-8.89,10.49m0-19.2c-4,0-4.21,5.85-4.21,8.71s.21,8.71,4.21,8.71,4.25-5.85,4.25-8.71-.21-8.71-4.25-8.71"/><path class="cls-1" d="M717.09,196.51v-12.92c0-1.73-.09-4.42-2.44-4.42-3.66,0-4.47,6.31-4.47,9.01v8.34h-4.25v-12.55c0-1.85,.04-4.8-2.52-4.8-3.74,0-4.37,6.31-4.37,9.05v8.29h-4.25v-20.04h4.25v4.76h.08c.84-2.73,3.03-5.22,6.06-5.22s4.8,2.14,4.97,4.97h.08c1.22-2.69,2.74-4.97,6.06-4.97,4.21,0,5.05,3.41,5.05,6.9v13.6h-4.25Z"/><path class="cls-1" d="M738.15,196.97c-2.49,0-4.08-1.1-5.18-3.24h-.08v11.79h-4.25v-29.05h4.25v3.28h.08c.97-2.23,2.65-3.75,5.18-3.75,6.19,0,7.57,5.34,7.57,10.48s-1.6,10.49-7.57,10.49m-1.1-18.27c-3.71,0-4,5.09-4,7.79s.08,8.04,4,8.04c3.62,0,4.04-5.43,4.04-8.04s-.38-7.79-4.04-7.79"/><rect class="cls-1" x="751.75" y="167.46" width="4.25" height="29.05"/><path class="cls-1" d="M763.58,167.46h4.59v4.21h-4.59v-4.21Zm.17,9.01h4.25v20.04h-4.25v-20.04Z"/><path class="cls-1" d="M785.43,196.51v-2.78h-.08c-1.18,2.02-3.28,3.24-5.64,3.24-2.86,0-5.47-1.98-5.47-5.01,0-5.64,6.95-6.4,11.2-6.61v-1.76c0-2.02,.04-5.81-2.82-5.81-2.69,0-3.11,2.19-3.24,4.38h-4.47c.34-4.67,3.24-6.15,7.7-6.15,5.56,0,7.08,2.44,7.08,7.58v12.92h-4.26Zm0-9.39c-2.61,.17-6.57,.84-6.57,4.21,0,1.47,.8,2.99,2.44,2.99,.55,0,1.13-.17,1.6-.42,1.68-.88,2.52-2.57,2.52-4.42v-2.36Z"/><path class="cls-1" d="M809.05,196.51v-12.55c0-1.77-.09-4.8-2.52-4.8-3.96,0-5.39,5.94-5.39,9.05v8.29h-4.25v-20.04h4.25v4.76h.09c1.35-2.94,3.58-5.22,7.03-5.22s5.05,2.74,5.05,5.85v14.65h-4.25Z"/><path class="cls-1" d="M830.36,182.99c0-2.07-.13-5.22-2.91-5.22-3.07,0-3.7,4.21-3.7,6.48,0,4.42,1.81,10.49,7.2,10.49,1.22,0,2.44-.29,3.58-.76v1.98c-1.72,.63-3.53,1.01-5.34,1.01-7.08,0-10.07-4.63-10.07-11.28,0-5.64,2.44-9.68,8.51-9.68,4.71,0,7.2,2.23,7.2,6.99h-4.46Z"/><path class="cls-1" d="M842.36,184.21c0,4.76,2.23,10.52,7.79,10.52,1.3,0,2.61-.29,3.83-.84v1.94c-2.02,.84-3.66,1.14-5.85,1.14-6.95,0-10.02-4.84-10.02-11.37,0-5.73,2.4-9.6,8.54-9.6,5.43,0,7.7,3.08,7.7,8.21h-12Zm4.13-6.44c-2.57,0-3.83,2.19-4,4.5h7.7c0-2.36-1.05-4.5-3.7-4.5"/><path class="cls-1" d="M530.41,58.37c.25,3.92-1.18,6.97-4.23,9.08-2.74,1.93-6.41,2.86-11.07,2.86-5.47,0-9.64-1.56-12.44-4.61-2.48-2.67-3.73-6.34-3.73-10.94,0-3.73,.81-7.59,2.49-11.57l6.78-4.1c-2.42,5.41-3.67,10.26-3.67,14.55,0,7.15,3.67,11.38,10.57,11.32,2.99,0,5.1-.25,6.41-.81,2.49-.93,3.85-2.86,4.1-5.78-3.86-.31-6.41-1.86-7.65-4.73l2.74-5.6c1.55,3.92,3.17,5.22,7.15,5.22h2.55v5.1Zm-16.36,20.09c0,1.74-1.43,3.23-3.23,3.23s-3.23-1.49-3.23-3.23,1.49-3.17,3.23-3.17,3.23,1.49,3.23,3.17m8.4,0c0,1.74-1.49,3.23-3.23,3.23s-3.23-1.49-3.23-3.23,1.43-3.17,3.23-3.17,3.23,1.49,3.23,3.17"/><path class="cls-1" d="M555.34,58.37h-3.73c-3.67,0-6.53-1.12-8.65-3.3-2.11,2.18-5.04,3.3-8.83,3.3h-4.47v-5.1h4.1c4.17,0,6.22-2.11,6.22-6.34v-14.86l5.85-1.74v16.79c0,4.11,2.05,6.16,6.16,6.16h3.36v5.1Zm-9.39-36.82c0,1.74-1.5,3.23-3.23,3.23s-3.23-1.5-3.23-3.23,1.49-3.17,3.23-3.17,3.23,1.43,3.23,3.17"/><path class="cls-1" d="M600.24,58.37h-46.64v-5.22h7.65V21.18l5.91-1.8v21.27c4.05-6.53,9.64-9.83,16.92-10.01,6.03-.19,10.64,2.24,13.68,7.15,1.81,3.05,2.74,7.09,2.74,12.01,0,.93-.06,2.36-.13,4.29-.06,1.93-.13,3.36-.13,4.29m-5.53-5.22c.06-.93,.12-1.86,.12-2.8,0-3.92-.81-7.28-2.42-10.2-1.86-2.55-4.54-3.98-7.96-4.17-4.16-.19-8.08,1.86-11.69,6.03-2.98,3.42-4.91,7.15-5.85,11.13h27.8Z"/><path class="cls-1" d="M638.11,58.37h-7.34c-.56,3.42-1.87,6.15-4.05,8.33-2.36,2.43-5.34,3.61-9.01,3.61-3.17,0-5.59-.56-7.28-1.62l-2.61-5.72c3.49,1.55,6.72,2.3,9.77,2.17,3.92-.06,6.78-3.11,7.28-6.78h-4.85c-4.17-.06-7.41-1.31-9.65-3.73-2.11-2.24-3.17-5.22-3.17-8.96,0-4.1,.94-7.4,2.74-9.95,2.18-3.05,5.41-4.6,9.64-4.6,7.9,0,11.88,4.85,11.88,14.55,0,1.93-.06,4.48-.13,7.59h6.78v5.1Zm-12.56-12.69c0-2.92-.25-4.97-.81-6.28-.87-2.05-2.61-3.11-5.16-3.11-4.29,0-6.47,3.11-6.47,9.39,0,5.04,2.3,7.59,6.91,7.59h5.47l.06-7.59Z"/><path class="cls-1" d="M652.28,47.37c0,3.17-1.06,5.78-3.17,7.9-2.12,2.05-4.98,3.11-8.53,3.11h-3.98v-5.22h3.67c4.05,0,6.09-2.11,6.09-6.34V20.12l5.91-1.74v28.98Z"/><polygon class="cls-1" points="664.91 58.37 658.99 58.37 658.99 20.13 664.91 18.26 664.91 58.37"/><path class="cls-1" d="M718.88,58.37h-8.83c-.81,7.22-5.9,11.94-13.93,11.94-2.67,0-4.85-.56-6.66-1.68l-2.8-5.84c2.8,1.55,5.9,2.36,9.45,2.36,5.03,0,8.08-3.23,8.08-8.46v-24.63l5.91-1.74v22.82h8.77v5.22Zm-8.96-36.82c0,1.74-1.43,3.23-3.17,3.23s-3.23-1.5-3.23-3.23,1.49-3.3,3.23-3.3,3.17,1.49,3.17,3.3"/><path class="cls-1" d="M752.64,58.37h-35.27v-5.1h29.23c.07-3.17-.06-5.47-.25-6.78-.44-2.55-1.43-4.61-2.98-6.03-2.11-1.99-4.92-2.98-8.34-2.98-4.48,0-8.08,1.62-10.88,4.85l-4.04-3.79,19.34-20.15h7.71l-13.43,14.12c.93-.13,1.8-.18,2.73-.18,4.29,0,7.9,1.3,10.83,3.92,2.92,2.55,4.66,5.97,5.16,10.26,.13,.87,.19,4.85,.19,11.88"/><path class="cls-1" d="M786.97,58.37h-8.83c-.81,7.22-5.91,11.94-13.93,11.94-2.67,0-4.85-.56-6.66-1.69l-2.8-5.84c2.8,1.55,5.91,2.36,9.45,2.36,5.03,0,8.09-3.23,8.09-8.46v-24.63l5.91-1.74v22.82h8.77v5.22Z"/><path class="cls-1" d="M828.14,58.37h-.81c-3.67,0-6.53-1.31-8.52-3.92-1.49,5.23-6.09,8.27-12.06,8.27-5.66,0-10.2-2.74-11.88-7.46-1.81,2.05-4.35,3.11-7.71,3.11h-1.99v-5.22h1.62c4.42,0,6.9-1.99,7.4-5.97,1.06-7.27,5.22-10.88,12.56-10.88,4.04,0,7.03,.93,9.02,2.8,1.8,1.68,2.92,4.41,3.48,8.08,.69,4.04,3.23,6.1,7.65,6.1l1.25-.13v5.22Zm-14.86-8.89c0-5.53-2.18-8.27-6.53-8.27s-6.59,2.74-6.59,8.27,2.18,8.27,6.59,8.27,6.53-2.74,6.53-8.27"/><path class="cls-1" d="M842.5,47.37c0,3.17-1.06,5.78-3.17,7.9-2.11,2.05-4.97,3.11-8.52,3.11h-3.98v-5.22h3.67c4.04,0,6.09-2.11,6.09-6.34V20.12l5.91-1.74v28.98Z"/><polygon class="cls-1" points="855.12 58.37 849.21 58.37 849.21 20.13 855.12 18.26 855.12 58.37"/><path class="cls-1" d="M249.03,131.14c.25,3.92-1.18,6.97-4.23,9.08-2.73,1.93-6.41,2.86-11.07,2.86-5.47,0-9.64-1.55-12.44-4.6-2.49-2.67-3.73-6.34-3.73-10.94,0-3.73,.81-7.59,2.49-11.57l6.78-4.1c-2.43,5.41-3.67,10.26-3.67,14.56,0,7.15,3.67,11.38,10.57,11.32,2.99,0,5.1-.25,6.41-.81,2.48-.93,3.85-2.86,4.1-5.78-3.86-.31-6.4-1.86-7.65-4.73l2.74-5.6c1.55,3.92,3.17,5.23,7.15,5.23h2.55v5.1Zm-16.35,20.09c0,1.74-1.43,3.23-3.23,3.23s-3.23-1.49-3.23-3.23,1.49-3.17,3.23-3.17,3.23,1.49,3.23,3.17m8.4,0c0,1.74-1.5,3.23-3.23,3.23s-3.23-1.49-3.23-3.23,1.43-3.17,3.23-3.17,3.23,1.49,3.23,3.17"/><path class="cls-1" d="M273.97,131.14h-3.74c-3.67,0-6.53-1.12-8.64-3.3-2.11,2.18-5.04,3.3-8.83,3.3h-4.48v-5.1h4.11c4.16,0,6.22-2.12,6.22-6.34v-14.86l5.85-1.74v16.79c0,4.11,2.05,6.16,6.16,6.16h3.36v5.1Zm-6.9-42.85l-2.74,2.74c-.87-1.18-1.93-1.74-3.23-1.74-2.3,0-3.48,1.37-3.48,4.17v1.81h9.26v3.61h-18.22l2.98-3.61h2.11v-1.25c0-4.66,2.93-8.33,7.84-8.33,1.99,0,3.79,.87,5.47,2.61"/><path class="cls-1" d="M298.16,131.14h-3.73c-3.67,0-6.53-1.12-8.64-3.3-2.12,2.18-5.04,3.3-8.83,3.3h-4.47v-5.1h4.1c4.17,0,6.22-2.12,6.22-6.34v-14.86l5.84-1.74v16.79c0,4.1,2.05,6.16,6.16,6.16h3.36v5.1Zm-13.31,8.7c0,1.74-1.49,3.23-3.23,3.23s-3.17-1.49-3.17-3.23,1.37-3.17,3.17-3.17,3.23,1.43,3.23,3.17m8.33,0c0,1.74-1.49,3.23-3.23,3.23s-3.17-1.49-3.17-3.23,1.43-3.17,3.17-3.17,3.23,1.43,3.23,3.17"/><path class="cls-1" d="M322.35,131.14h-3.74c-3.66,0-6.53-1.12-8.64-3.3-2.11,2.18-5.04,3.3-8.83,3.3h-4.48v-5.1h4.1c4.17,0,6.22-2.11,6.22-6.34v-14.86l5.85-1.74v16.79c0,4.1,2.06,6.15,6.16,6.15h3.36v5.1Zm-8.9,8.77c0,1.74-1.43,3.23-3.17,3.23s-3.23-1.49-3.23-3.23,1.49-3.17,3.23-3.17,3.17,1.49,3.17,3.17"/><path class="cls-1" d="M336.52,120.13c0,3.17-1.06,5.78-3.17,7.9-2.12,2.05-4.97,3.11-8.52,3.11h-3.98v-5.22h3.67c4.04,0,6.09-2.11,6.09-6.34v-26.68l5.91-1.74v28.98Z"/><polygon class="cls-1" points="349.14 131.14 343.23 131.14 343.23 92.89 349.14 91.03 349.14 131.14"/><path class="cls-1" d="M412.95,116.9c0,3.92-.87,7.03-2.55,9.45-2.06,2.93-5.17,4.42-9.39,4.42s-7.4-1.49-9.45-4.42c-1.68-2.42-2.55-5.53-2.55-9.45,0-3.54,.62-6.34,1.8-8.39h-3.36c-3.36,0-5.6,.43-6.78,1.31-1.3,.93-1.99,2.86-1.99,5.72v25.81l-5.9,1.81v-27.61c0-4.6,1.24-7.9,3.66-9.89,2.12-1.68,5.42-2.55,9.89-2.55h14.68c4.23,0,7.34,1.5,9.39,4.42,1.68,2.42,2.55,5.53,2.55,9.39m-5.85,0c0-5.78-2.06-8.65-6.1-8.65s-6.09,2.86-6.09,8.65,2.05,8.65,6.09,8.65,6.1-2.86,6.1-8.65"/><polygon class="cls-1" points="425.56 131.14 419.66 131.14 419.66 92.89 425.56 91.03 425.56 131.14"/><path class="cls-1" d="M459.89,131.14h-8.83c-.81,7.22-5.9,11.94-13.92,11.94-2.68,0-4.85-.56-6.66-1.68l-2.8-5.85c2.8,1.55,5.9,2.37,9.45,2.37,5.04,0,8.08-3.23,8.08-8.46v-24.63l5.91-1.74v22.82h8.77v5.22Zm-8.96-36.82c0,1.74-1.43,3.23-3.17,3.23s-3.23-1.49-3.23-3.23,1.49-3.3,3.23-3.3,3.17,1.49,3.17,3.3"/><path class="cls-1" d="M484.08,131.14h-3.73c-3.66,0-6.53-1.12-8.65-3.3-2.11,2.18-5.04,3.3-8.83,3.3h-4.48v-5.1h4.11c4.17,0,6.22-2.11,6.22-6.34v-14.86l5.85-1.74v16.79c0,4.11,2.05,6.16,6.16,6.16h3.36v5.1Zm-13.62-36.82c0,1.74-1.49,3.23-3.23,3.23s-3.17-1.49-3.17-3.23,1.37-3.17,3.17-3.17,3.23,1.43,3.23,3.17m8.34,0c0,1.74-1.5,3.23-3.23,3.23s-3.17-1.49-3.17-3.23,1.49-3.17,3.17-3.17,3.23,1.43,3.23,3.17"/><path class="cls-1" d="M498.26,120.13c0,3.17-1.06,5.78-3.17,7.9-2.12,2.05-4.98,3.11-8.53,3.11h-3.98v-5.22h3.67c4.05,0,6.09-2.11,6.09-6.34v-26.68l5.91-1.74v28.98Z"/><path class="cls-1" d="M534.26,120.13c0,3.17-1.06,5.85-3.17,7.9-2.12,2.05-4.91,3.11-8.46,3.11h-17.66l2.73-5.22h6.28v-30.6l5.9-1.74v32.34h2.37c4.1,0,6.16-2.05,6.16-6.22v-27.36l5.85-1.74v29.54Z"/><polygon class="cls-1" points="546.88 131.14 540.97 131.14 540.97 92.89 546.88 91.03 546.88 131.14"/><path class="cls-1" d="M601.98,131.14c.25,3.92-1.18,6.97-4.23,9.08-2.73,1.93-6.4,2.86-11.07,2.86-5.47,0-9.64-1.55-12.44-4.6-2.49-2.67-3.74-6.34-3.74-10.94,0-3.73,.81-7.59,2.49-11.57l6.78-4.1c-2.42,5.41-3.66,10.26-3.66,14.56,0,7.15,3.66,11.38,10.57,11.32,2.98,0,5.1-.25,6.41-.81,2.49-.93,3.86-2.86,4.11-5.78-3.86-.31-6.41-1.86-7.65-4.73l2.73-5.6c1.56,3.92,3.17,5.23,7.15,5.23h2.55v5.1Z"/><path class="cls-1" d="M627.78,131.14h-4.11c-3.61,0-6.46-1.12-8.64-3.36-2.05,2.24-4.98,3.36-8.77,3.36h-5.04v-5.22h4.66c4.1,0,6.16-2.11,6.16-6.34v-26.68l5.91-1.86v28.85c0,4.04,2.05,6.03,6.09,6.03h3.73v5.22Z"/><path class="cls-1" d="M659.56,131.14h-33.21v-5.22h6.9v-10.64c0-3.42,1.12-6.34,3.29-8.65,2.24-2.36,5.35-3.54,9.27-3.54,3.36,0,6.28,1.25,8.77,3.67l-4.42,3.98c-1.49-1.8-3.18-2.67-5.04-2.67-3.74,0-5.98,2.67-5.98,6.22v11.63h15.98l4.42,5.22Z"/><path class="cls-1" d="M717.51,131.14h-4.04c-4.85,0-7.96-1.43-9.27-4.35-1.42,2.92-4.48,4.35-9.14,4.35-7.9,0-11.88-4.73-11.88-14.24s3.98-13.81,11.88-13.81h12.62v16.61c0,4.23,2.05,6.34,6.09,6.34h3.73v5.1Zm-15.73-23.25h-6.34c-2.43,0-4.17,.81-5.1,2.42-.81,1.31-1.24,3.54-1.24,6.59s.43,5.29,1.24,6.66c.94,1.68,2.67,2.49,5.1,2.49s4.17-.81,5.1-2.49c.81-1.37,1.24-3.61,1.24-6.66v-9.01Zm-5.41-13.56c0,1.74-1.49,3.23-3.29,3.23s-3.23-1.49-3.23-3.23,1.49-3.17,3.23-3.17,3.29,1.43,3.29,3.17m8.34,0c0,1.74-1.5,3.23-3.23,3.23s-3.17-1.49-3.17-3.23,1.43-3.17,3.17-3.17,3.23,1.43,3.23,3.17"/><path class="cls-1" d="M732.49,120.14c0,3.17-1.05,5.84-3.17,7.9-2.11,2.05-4.97,3.11-8.52,3.11h-4.79v-5.1h4.48c4.11,0,6.16-2.12,6.16-6.34v-14.86l5.84-1.74v17.04Zm-3.73,19.71c0,1.74-1.5,3.23-3.23,3.23s-3.17-1.49-3.17-3.23,1.49-3.17,3.17-3.17,3.23,1.43,3.23,3.17"/><path class="cls-1" d="M754.01,131.14h-6.59c-5.29,0-8.21-3.23-8.21-8.02v-30.23l5.91-1.86v31.9c0,1.99,.99,2.99,3.05,2.99h5.85v5.22Z"/><path class="cls-1" d="M781.69,121.38c0,3.67-1.12,6.28-3.3,7.84-1.74,1.31-4.48,1.93-8.21,1.93h-17.73v-5.22h16.98c2.17,0,3.66-.12,4.35-.37,1.31-.56,1.99-1.81,1.99-3.73h-8.39c-3.98,0-6.72-.87-8.27-2.67-1.3-1.49-1.99-3.92-1.99-7.27,0-6.03,4.6-9.95,12.06-9.95,4.17,0,7.4,1.06,9.57,3.17,1.93,1.81,2.93,4.04,2.93,6.78v9.51Zm-13.81-27.05c0,1.74-1.49,3.23-3.29,3.23s-3.17-1.49-3.17-3.23,1.42-3.17,3.17-3.17,3.29,1.43,3.29,3.17m7.9,17.72c0-3.29-2.17-4.91-6.59-4.91-4.17,0-6.22,1.62-6.22,4.91,0,2.18,.31,3.49,.93,4.05,.62,.5,2.17,.75,4.66,.75h7.21v-4.79Zm.44-17.72c0,1.74-1.5,3.23-3.17,3.23s-3.23-1.49-3.23-3.23,1.49-3.17,3.23-3.17,3.17,1.43,3.17,3.17"/><path class="cls-1" d="M815.95,131.14h-8.83c-.81,7.21-5.91,11.94-13.93,11.94-2.67,0-4.85-.56-6.65-1.68l-2.8-5.84c2.8,1.55,5.91,2.36,9.45,2.36,5.04,0,8.09-3.23,8.09-8.46v-24.63l5.91-1.74v22.82h8.77v5.22Z"/><path class="cls-1" d="M841,131.14h-4.1c-3.61,0-6.46-1.12-8.65-3.36-2.05,2.24-4.97,3.36-8.77,3.36h-5.03v-5.22h4.66c4.1,0,6.16-2.11,6.16-6.34v-26.68l5.91-1.86v28.85c0,4.04,2.05,6.03,6.1,6.03h3.73v5.22Z"/><path class="cls-1" d="M855.12,120.13c0,3.17-1.06,5.78-3.17,7.9-2.11,2.05-4.97,3.11-8.52,3.11h-3.98v-5.22h3.67c4.05,0,6.09-2.11,6.09-6.34v-26.68l5.91-1.74v28.98Z"/></svg>